<svg  xmlns="http://www.w3.org/2000/svg" width="429.00000000000006" height="104.92060885547463" viewBox="0 0 369.66666666666663 90.40944461594509" class="looka-1j8o68f"><defs id="SvgjsDefs1514"></defs><g id="SvgjsG1515" featurekey="tOsHRK-0" transform="matrix(0.9914260466151172,0,0,0.9914260466151172,-7.905629854770668,-4.365626961245583)" fill="#111111"><path xmlns="http://www.w3.org/2000/svg" d="M84.417,55.024c-3.048-3.856-10.304-11.927-18.812-13.686c4.684-3.89,7.618-9.458,7.618-15.646  c0-0.238-0.011-0.474-0.02-0.71c10.247-7.725,4.328-15.511,4.328-15.511c-5.127-7.52-13.213-3.478-15.688-1.979  c-3.579-1.959-7.78-3.087-12.275-3.087c-4.667,0-9.014,1.22-12.679,3.319c-2.651-2.115-9.604-6.479-15.227,0.406  c-5.503,6.737,0.868,14.647,4.249,17.507c0,0.019-0.001,0.037-0.001,0.055c0,6.345,3.088,12.037,7.982,15.938  c-9.661,2.17-18.648,11.91-20.792,14.368c-3.041,1.763-5.126,5.338-5.126,9.471c0,5.438,3.603,9.913,8.253,10.557l-0.073,0.087  c8.339,28.739,24.303,16.32,24.303,16.32c2.006-1.761,3.368-3.548,4.23-5.322h0.001h8.555c1.32,3.085,3.179,4.968,3.179,4.968  c15.258,11.708,23.417-9.578,23.417-9.578c0.92-2.901,1.214-4.484,0.989-6.584l-0.002-0.004c0.583,0.129,1.185,0.2,1.801,0.2  c5.192,0,9.401-4.766,9.401-10.644C92.027,60.286,88.753,55.973,84.417,55.024z M28.556,63.979  c-0.635,0.147-1.243,0.344-1.821,0.562c-0.047-0.606-0.143-1.197-0.276-1.77C27.222,62.606,28.161,62.709,28.556,63.979z   M70.968,63.812c0.595-0.938,1.509-1.87,2.709-1.602c-0.234,0.825-0.374,1.693-0.423,2.592c-0.938-0.456-1.577-0.646-1.577-0.646  C71.441,64.024,71.205,63.913,70.968,63.812z"></path></g><g id="SvgjsG1516" featurekey="dVtZHI-0" transform="matrix(3.521746729631001,0,0,3.521746729631001,102.9296377622915,2.0677946724284126)" fill="#111111"><path d="M2.08 11.02 l1.78 1.66 c0.56 0.52 1 1.0767 1.32 1.67 s0.48 1.19 0.48 1.79 l0 0.26 c0.01334 0.42666 -0.04 0.80666 -0.16 1.14 l0.74 0 c0.10666 -0.36 0.15332 -0.73334 0.13998 -1.12 l0 -0.28 c0 -0.72 -0.18334 -1.4067 -0.55 -2.06 s-0.87666 -1.2933 -1.53 -1.92 l-1.72 -1.62 c-0.54666 -0.52 -0.99666 -1.0067 -1.35 -1.46 s-0.53 -1.02 -0.53 -1.7 l0 -0.12 c0 -0.70666 0.19666 -1.2767 0.59 -1.71 s0.94334 -0.65 1.65 -0.65 c0.50666 0 0.92 0.07666 1.24 0.23 s0.64666 0.38334 0.98 0.69 l0.46 -0.52 c-0.37334 -0.34666 -0.75668 -0.60666 -1.15 -0.78 s-0.90334 -0.26 -1.53 -0.26 c-0.81334 0 -1.5033 0.26334 -2.07 0.79 s-0.85 1.2567 -0.85 2.19 l0 0.16 c0 0.76 0.19 1.41 0.57 1.95 s0.87666 1.0967 1.49 1.67 z M5.96 18.3 l-0.82002 0 c-0.46666 0.68 -1.2133 1.0267 -2.24 1.04 c-0.34666 0 -0.66 -0.04 -0.94 -0.12 l0 0.7 c0.28 0.05334 0.59334 0.08 0.94 0.08 c0.72 0 1.34 -0.14666 1.86 -0.44 s0.92 -0.71334 1.2 -1.26 z M14.84 4.5 l-0.000019531 -0.26 l-5.86 0 l0 0.64 l3.38 0 l0 15.12 l0.7 0 l0 -15.12 l1.8 0 c-0.02666 -0.21334 -0.03332 -0.34 -0.01998 -0.38 z M15.36 4.24 l0 0.64 l1.1 0 l0 -0.64 l-1.1 0 z M24.400000000000002 6.140000000000001 c0 0.08 0.23666 0.84334 0.71 2.29 s0.99 3.03 1.55 4.75 s1.3133 3.9934 2.26 6.82 l0.86 0 l-5.3 -15.76 l-0.16 0 l-5.26 15.76 l0.82 0 z M24.040000000000003 15.52 l-0.72 0 l1.2 4.48 l0.72 0 z M37.06 20 l0.06 -0.64002 c-0.76 -0.08 -1.4033 -0.33666 -1.93 -0.77 s-0.95 -0.97 -1.27 -1.61 s-0.55 -1.3533 -0.69 -2.14 s-0.21 -1.5733 -0.21 -2.36 l0 -0.74 c0 -0.85334 0.08666 -1.69 0.26 -2.51 s0.44 -1.55 0.8 -2.19 s0.82334 -1.1567 1.39 -1.55 s1.2433 -0.59 2.03 -0.59 c0.68 0 1.2 0.08666 1.56 0.26 s0.68666 0.37334 0.98 0.6 l0.4 -0.5 c-0.38666 -0.30666 -0.79666 -0.55 -1.23 -0.73 s-1.0033 -0.27 -1.71 -0.27 c-1.5333 0 -2.77 0.68334 -3.71 2.05 s-1.41 3.1766 -1.41 5.43 l0 0.74 c0 2.16 0.41666 3.9134 1.25 5.26 s1.9767 2.1 3.43 2.26 z M38.160000000000004 19.999980469 c1.1333 -0.08 2.1134 -0.46 2.94 -1.14 l0.12 -0.1 l0 -5.34 l-3.94 0 l0 0.66 l3.3 0 l0 4.38 c-0.69334 0.52 -1.5133 0.82 -2.46 0.9 z M44.38 14.16 l0 -9.36 l4.8 0 l0 -0.56 l-5.36 0 l0 9.92 l0.56 0 z M49.38 20 l0 -0.54 l-5 0 l0 -4.14 l0.8 0 l0 -0.54 l-1.36 0 l0 5.22 l5.56 0 z M66.06 20 l0 -15.76 l-0.66 0 l-3.88 7.22 l-2.58 -4.8 l-0.58 0.32 l3.16 5.86 l3.9 -7.28 l0 14.44 l0.64 0 z M57.620000000000005 20 l0 -14.4 l0.16 0.3 l0.58 -0.3 l-0.74 -1.36 l-0.64 0 l0 15.76 l0.64 0 z M73.06 15.219999999999999 c0.85334 -0.48 1.5067 -1.1567 1.96 -2.03 s0.68 -1.8633 0.68 -2.97 l0 -0.28 c0 -1.64 -0.49 -3 -1.47 -4.08 s-2.3766 -1.62 -4.19 -1.62 l-1.38 0 l0 6.34 c0.22666 0.01334 0.45332 0.02 0.67998 0.02 l0 -5.72 l0.66 0 c1.64 0 2.88 0.47666 3.72 1.43 s1.26 2.1766 1.26 3.67 l0 0.22 c0 1.48 -0.42 2.6934 -1.26 3.64 s-2.08 1.42 -3.72 1.42 l-0.66 0 l0 0 l-0.68 0 l0 0.64 c0.4 0.01334 0.66666 0.02 0.8 0.02 l0.58 0 c0.92 0 1.7267 -0.14 2.42 -0.42 l2.48 4.5 l0.8 0 z"></path></g></svg>